<svg xmlns="http://www.w3.org/2000/svg" width="640" height="480" viewBox="0 0 640 480" role="img" aria-label="Abstract demo artwork">
<defs>
<linearGradient id="g" x1="0" y1="0" x2="1" y2="1"><stop offset="0" stop-color="#172554"/><stop offset="1" stop-color="#0e7490"/></linearGradient>
<filter id="b" x="-20%" y="-20%" width="140%" height="140%"><feGaussianBlur stdDeviation="27"/></filter>
</defs>
<rect width="640" height="480" fill="url(#g)"/>
<g filter="url(#b)"><circle cx="110.8" cy="315.6" r="133.8" fill="#0e7490" opacity="0.3"/><circle cx="310.6" cy="424.9" r="101.6" fill="#67e8f9" opacity="0.7"/><circle cx="229.8" cy="275.6" r="66.4" fill="#f9a8d4" opacity="0.7"/><rect x="-64.4" y="333.1" width="267.9" height="134" rx="22.3" fill="#0e7490" opacity="0.3" transform="rotate(38 69.5 400.1)"/><circle cx="29.7" cy="66.6" r="79.4" fill="#67e8f9" opacity="0.3"/><rect x="112.9" y="395" width="217.4" height="108.7" rx="18.1" fill="#f9a8d4" opacity="0.6" transform="rotate(52 221.6 449.4)"/><rect x="51.1" y="235.8" width="109.9" height="55" rx="9.2" fill="#0e7490" opacity="0.4" transform="rotate(12 106.1 263.3)"/><circle cx="210.2" cy="106.8" r="120.6" fill="#67e8f9" opacity="0.7"/><rect x="481.8" y="377.7" width="298.9" height="149.5" rx="24.9" fill="#f9a8d4" opacity="0.5" transform="rotate(84 631.2 452.4)"/></g>
<g stroke="#ffffff" stroke-opacity="0.06" stroke-width="2"><line x1="45.7" y1="0" x2="-146.3" y2="480"/><line x1="91.4" y1="0" x2="-100.6" y2="480"/><line x1="137.1" y1="0" x2="-54.9" y2="480"/><line x1="182.9" y1="0" x2="-9.1" y2="480"/><line x1="228.6" y1="0" x2="36.6" y2="480"/><line x1="274.3" y1="0" x2="82.3" y2="480"/><line x1="320" y1="0" x2="128" y2="480"/><line x1="365.7" y1="0" x2="173.7" y2="480"/><line x1="411.4" y1="0" x2="219.4" y2="480"/><line x1="457.1" y1="0" x2="265.1" y2="480"/><line x1="502.9" y1="0" x2="310.9" y2="480"/><line x1="548.6" y1="0" x2="356.6" y2="480"/><line x1="594.3" y1="0" x2="402.3" y2="480"/></g>
</svg>
