<svg xmlns="http://www.w3.org/2000/svg" width="640" height="480" viewBox="0 0 640 480" role="img" aria-label="Abstract demo artwork">
<defs>
<linearGradient id="g" x1="0" y1="0" x2="1" y2="1"><stop offset="0" stop-color="#0f172a"/><stop offset="1" stop-color="#1e3a8a"/></linearGradient>
<filter id="b" x="-20%" y="-20%" width="140%" height="140%"><feGaussianBlur stdDeviation="27"/></filter>
</defs>
<rect width="640" height="480" fill="url(#g)"/>
<g filter="url(#b)"><rect x="455.2" y="327.1" width="227.1" height="113.6" rx="18.9" fill="#1e3a8a" opacity="0.5" transform="rotate(3 568.8 383.9)"/><circle cx="627" cy="25.7" r="149.9" fill="#38bdf8" opacity="0.4"/><rect x="272.8" y="346.7" width="131.6" height="65.8" rx="11" fill="#f472b6" opacity="0.6" transform="rotate(24 338.6 379.6)"/><rect x="-46.9" y="147.8" width="162" height="81" rx="13.5" fill="#1e3a8a" opacity="0.7" transform="rotate(74 34.1 188.3)"/><circle cx="387.5" cy="61.9" r="80.3" fill="#38bdf8" opacity="0.7"/></g>
<g stroke="#ffffff" stroke-opacity="0.06" stroke-width="2"><line x1="45.7" y1="0" x2="-146.3" y2="480"/><line x1="91.4" y1="0" x2="-100.6" y2="480"/><line x1="137.1" y1="0" x2="-54.9" y2="480"/><line x1="182.9" y1="0" x2="-9.1" y2="480"/><line x1="228.6" y1="0" x2="36.6" y2="480"/><line x1="274.3" y1="0" x2="82.3" y2="480"/><line x1="320" y1="0" x2="128" y2="480"/><line x1="365.7" y1="0" x2="173.7" y2="480"/><line x1="411.4" y1="0" x2="219.4" y2="480"/><line x1="457.1" y1="0" x2="265.1" y2="480"/><line x1="502.9" y1="0" x2="310.9" y2="480"/><line x1="548.6" y1="0" x2="356.6" y2="480"/><line x1="594.3" y1="0" x2="402.3" y2="480"/></g>
</svg>
