<svg xmlns="http://www.w3.org/2000/svg" width="640" height="480" viewBox="0 0 640 480" role="img" aria-label="Abstract demo artwork">
<defs>
<linearGradient id="g" x1="0" y1="0" x2="1" y2="1"><stop offset="0" stop-color="#0f172a"/><stop offset="1" stop-color="#1e3a8a"/></linearGradient>
<filter id="b" x="-20%" y="-20%" width="140%" height="140%"><feGaussianBlur stdDeviation="27"/></filter>
</defs>
<rect width="640" height="480" fill="url(#g)"/>
<g filter="url(#b)"><circle cx="323.9" cy="210.6" r="119.1" fill="#1e3a8a" opacity="0.6"/><rect x="-6.5" y="131.4" width="133" height="66.5" rx="11.1" fill="#38bdf8" opacity="0.3" transform="rotate(5 60 164.6)"/><rect x="471.9" y="-10.5" width="245.7" height="122.9" rx="20.5" fill="#f472b6" opacity="0.5" transform="rotate(17 594.8 50.9)"/><circle cx="576.7" cy="269.4" r="86.2" fill="#1e3a8a" opacity="0.7"/><circle cx="381.3" cy="78.8" r="125.5" fill="#38bdf8" opacity="0.6"/></g>
<g stroke="#ffffff" stroke-opacity="0.06" stroke-width="2"><line x1="45.7" y1="0" x2="-146.3" y2="480"/><line x1="91.4" y1="0" x2="-100.6" y2="480"/><line x1="137.1" y1="0" x2="-54.9" y2="480"/><line x1="182.9" y1="0" x2="-9.1" y2="480"/><line x1="228.6" y1="0" x2="36.6" y2="480"/><line x1="274.3" y1="0" x2="82.3" y2="480"/><line x1="320" y1="0" x2="128" y2="480"/><line x1="365.7" y1="0" x2="173.7" y2="480"/><line x1="411.4" y1="0" x2="219.4" y2="480"/><line x1="457.1" y1="0" x2="265.1" y2="480"/><line x1="502.9" y1="0" x2="310.9" y2="480"/><line x1="548.6" y1="0" x2="356.6" y2="480"/><line x1="594.3" y1="0" x2="402.3" y2="480"/></g>
</svg>
