<svg xmlns="http://www.w3.org/2000/svg" width="1600" height="900" viewBox="0 0 1600 900" role="img" aria-label="Abstract demo artwork">
<defs>
<linearGradient id="g" x1="0" y1="0" x2="1" y2="1"><stop offset="0" stop-color="#0f172a"/><stop offset="1" stop-color="#1e3a8a"/></linearGradient>
<filter id="b" x="-20%" y="-20%" width="140%" height="140%"><feGaussianBlur stdDeviation="50"/></filter>
</defs>
<rect width="1600" height="900" fill="url(#g)"/>
<g filter="url(#b)"><rect x="1253" y="516.7" width="259.2" height="129.6" rx="21.6" fill="#1e3a8a" opacity="0.4" transform="rotate(70 1382.6 581.5)"/><circle cx="1129.2" cy="72.1" r="306.4" fill="#38bdf8" opacity="0.7"/><circle cx="404" cy="400" r="123" fill="#f472b6" opacity="0.5"/><rect x="-2.4" y="480.1" width="243.8" height="121.9" rx="20.3" fill="#1e3a8a" opacity="0.5" transform="rotate(39 119.5 541)"/><circle cx="31.3" cy="607.8" r="236.5" fill="#38bdf8" opacity="0.3"/><circle cx="261.4" cy="683.4" r="346.3" fill="#f472b6" opacity="0.5"/><circle cx="1100.6" cy="137.7" r="167.7" fill="#1e3a8a" opacity="0.7"/><rect x="1006.1" y="133.1" width="680.2" height="340.1" rx="56.7" fill="#38bdf8" opacity="0.6" transform="rotate(57 1346.2 303.1)"/><rect x="328" y="249.1" width="591.8" height="295.9" rx="49.3" fill="#f472b6" opacity="0.3" transform="rotate(73 623.9 397)"/></g>
<g stroke="#ffffff" stroke-opacity="0.06" stroke-width="2"><line x1="114.3" y1="0" x2="-245.7" y2="900"/><line x1="228.6" y1="0" x2="-131.4" y2="900"/><line x1="342.9" y1="0" x2="-17.1" y2="900"/><line x1="457.1" y1="0" x2="97.1" y2="900"/><line x1="571.4" y1="0" x2="211.4" y2="900"/><line x1="685.7" y1="0" x2="325.7" y2="900"/><line x1="800" y1="0" x2="440" y2="900"/><line x1="914.3" y1="0" x2="554.3" y2="900"/><line x1="1028.6" y1="0" x2="668.6" y2="900"/><line x1="1142.9" y1="0" x2="782.9" y2="900"/><line x1="1257.1" y1="0" x2="897.1" y2="900"/><line x1="1371.4" y1="0" x2="1011.4" y2="900"/><line x1="1485.7" y1="0" x2="1125.7" y2="900"/></g>
</svg>
