<svg xmlns="http://www.w3.org/2000/svg" width="1600" height="900" viewBox="0 0 1600 900" role="img" aria-label="Abstract demo artwork">
<defs>
<linearGradient id="g" x1="0" y1="0" x2="1" y2="1"><stop offset="0" stop-color="#111827"/><stop offset="1" stop-color="#4c1d95"/></linearGradient>
<filter id="b" x="-20%" y="-20%" width="140%" height="140%"><feGaussianBlur stdDeviation="50"/></filter>
</defs>
<rect width="1600" height="900" fill="url(#g)"/>
<g filter="url(#b)"><rect x="-95.7" y="646.5" width="482.5" height="241.3" rx="40.2" fill="#4c1d95" opacity="0.6" transform="rotate(66 145.5 767.1)"/><circle cx="332.5" cy="421.3" r="325" fill="#a78bfa" opacity="0.3"/><circle cx="79.3" cy="581.8" r="304.1" fill="#fbbf24" opacity="0.6"/><circle cx="187.3" cy="341" r="202.8" fill="#4c1d95" opacity="0.6"/><rect x="399.5" y="659.1" width="634.3" height="317.2" rx="52.9" fill="#a78bfa" opacity="0.5" transform="rotate(11 716.6 817.7)"/><circle cx="1114.5" cy="54.7" r="246.9" fill="#fbbf24" opacity="0.6"/><circle cx="1203" cy="59" r="121.3" fill="#4c1d95" opacity="0.7"/><rect x="6.8" y="72.4" width="622.6" height="311.3" rx="51.9" fill="#a78bfa" opacity="0.4" transform="rotate(52 318.1 228.1)"/><circle cx="284.9" cy="855.5" r="351.5" fill="#fbbf24" opacity="0.6"/></g>
<g stroke="#ffffff" stroke-opacity="0.06" stroke-width="2"><line x1="114.3" y1="0" x2="-245.7" y2="900"/><line x1="228.6" y1="0" x2="-131.4" y2="900"/><line x1="342.9" y1="0" x2="-17.1" y2="900"/><line x1="457.1" y1="0" x2="97.1" y2="900"/><line x1="571.4" y1="0" x2="211.4" y2="900"/><line x1="685.7" y1="0" x2="325.7" y2="900"/><line x1="800" y1="0" x2="440" y2="900"/><line x1="914.3" y1="0" x2="554.3" y2="900"/><line x1="1028.6" y1="0" x2="668.6" y2="900"/><line x1="1142.9" y1="0" x2="782.9" y2="900"/><line x1="1257.1" y1="0" x2="897.1" y2="900"/><line x1="1371.4" y1="0" x2="1011.4" y2="900"/><line x1="1485.7" y1="0" x2="1125.7" y2="900"/></g>
</svg>
