<svg xmlns="http://www.w3.org/2000/svg" width="1600" height="900" viewBox="0 0 1600 900" role="img" aria-label="Abstract demo artwork">
<defs>
<linearGradient id="g" x1="0" y1="0" x2="1" y2="1"><stop offset="0" stop-color="#18181b"/><stop offset="1" stop-color="#831843"/></linearGradient>
<filter id="b" x="-20%" y="-20%" width="140%" height="140%"><feGaussianBlur stdDeviation="50"/></filter>
</defs>
<rect width="1600" height="900" fill="url(#g)"/>
<g filter="url(#b)"><rect x="885.7" y="-104.9" width="508.6" height="254.3" rx="42.4" fill="#831843" opacity="0.7" transform="rotate(42 1140 22.2)"/><circle cx="895.2" cy="422.1" r="324.7" fill="#f472b6" opacity="0.7"/><rect x="728.9" y="518.6" width="525.4" height="262.7" rx="43.8" fill="#93c5fd" opacity="0.3" transform="rotate(46 991.6 649.9)"/><rect x="-15.1" y="-51.1" width="631.9" height="316" rx="52.7" fill="#831843" opacity="0.7" transform="rotate(24 300.9 106.9)"/><circle cx="940.4" cy="722.2" r="156" fill="#f472b6" opacity="0.4"/><circle cx="1298.1" cy="94.4" r="210.5" fill="#93c5fd" opacity="0.5"/></g>
<g stroke="#ffffff" stroke-opacity="0.06" stroke-width="2"><line x1="114.3" y1="0" x2="-245.7" y2="900"/><line x1="228.6" y1="0" x2="-131.4" y2="900"/><line x1="342.9" y1="0" x2="-17.1" y2="900"/><line x1="457.1" y1="0" x2="97.1" y2="900"/><line x1="571.4" y1="0" x2="211.4" y2="900"/><line x1="685.7" y1="0" x2="325.7" y2="900"/><line x1="800" y1="0" x2="440" y2="900"/><line x1="914.3" y1="0" x2="554.3" y2="900"/><line x1="1028.6" y1="0" x2="668.6" y2="900"/><line x1="1142.9" y1="0" x2="782.9" y2="900"/><line x1="1257.1" y1="0" x2="897.1" y2="900"/><line x1="1371.4" y1="0" x2="1011.4" y2="900"/><line x1="1485.7" y1="0" x2="1125.7" y2="900"/></g>
</svg>
